<svg id="Capa_1" enable-background="new 0 0 512 512" height="512" viewBox="0 0 512 512" width="512" xmlns="http://www.w3.org/2000/svg"><g><path d="m101 41h-30c-16.569 0-30 13.431-30 30h90c0-16.569-13.431-30-30-30z"/><path d="m457 101h-100.188l-9.743-29.23c-6.136-18.405-23.293-30.77-42.692-30.77h-96.754c-19.399 0-36.556 12.365-42.691 30.77l-9.744 29.23h-100.188c-30.327 0-55 24.673-55 55v260c0 30.327 24.673 55 55 55h402c30.327 0 55-24.673 55-55v-260c0-30.327-24.673-55-55-55zm-406 55c0-8.284 6.716-15 15-15h30c8.284 0 15 6.716 15 15s-6.716 15-15 15h-30c-8.284 0-15-6.716-15-15zm205 265c-79.953 0-145-65.047-145-145s65.047-145 145-145 145 65.047 145 145-65.047 145-145 145zm180-250c-8.284 0-15-6.716-15-15s6.716-15 15-15 15 6.716 15 15-6.716 15-15 15z"/><path d="m256 161c-63.411 0-115 51.589-115 115s51.589 115 115 115 115-51.589 115-115-51.589-115-115-115zm0 195c-44.112 0-80-35.888-80-80s35.888-80 80-80 80 35.888 80 80-35.888 80-80 80z"/><circle cx="256" cy="276" r="50"/></g></svg>